#!OML:ASF H:\LiuWeirdWalks\Patient Classification 1\Patient 1\Session 1\male.ASF
:FULLY-SPECIFIED
:DEGREES
383
root -0.517144 18.1144 -22.9405 2.59034 6.37307 -1.62025
lowerback 3.48489 -5.28255 -1.87573
upperback -1.46909 -6.97976 6.35433
thorax -2.44677 -3.42293 8.03068
lowerneck -14.2731 6.0384 7.66351
upperneck 21.6164 9.92177 -13.5213
head 10.3595 3.77593 -4.74062
rclavicle 3.38928e-014 -1.74931e-014
rhumerus -40.2128 2.77977 -75.3755
rradius 35.7829
rwrist -11.0013
rhand -15.9209 -4.72419
rfingers 7.12502
rthumb 10.2764 -34.4531
lclavicle 3.38928e-014 -1.74931e-014
lhumerus -40.1217 14.2606 84.4523
lradius 35.8584
lwrist 11.5284
lhand -12.8464 0.343514
lfingers 7.12502
lthumb 13.2413 29.9029
rfemur -13.4576 1.21433 27.0693
rtibia 26.5929
rfoot -10.5649 -19.1649
rtoes 2.38752
lfemur -3.50432 -2.09863 -11.0789
ltibia 52.3693
lfoot 21.5826 -10.9542
ltoes 0.955972
384
root -0.527255 18.1146 -22.902 2.47791 6.44961 -1.77222
lowerback 3.53176 -5.25144 -1.72184
upperback -1.44627 -6.92929 6.37333
thorax -2.47259 -3.3992 7.96678
lowerneck -14.1794 6.01317 7.66232
upperneck 21.6218 9.89075 -13.5182
head 10.3388 3.76588 -4.7458
rclavicle 6.99722e-014 3.18055e-015
rhumerus -40.1805 2.91623 -75.462
rradius 35.8325
rwrist -11.0154
rhand -15.9638 -4.78413
rfingers 7.12502
rthumb 10.2351 -34.5151
lclavicle 6.99722e-014 3.18055e-015
lhumerus -40.3368 14.0106 84.5664
lradius 36.0293
lwrist 11.6121
lhand -12.8219 0.26694
lfingers 7.12502
lthumb 13.2649 29.8248
rfemur -13.0917 1.16293 27.3003
rtibia 26.3537
rfoot -10.5703 -19.2185
rtoes 2.38999
lfemur -4.23579 -2.21211 -10.7923
ltibia 53.6375
lfoot 21.5572 -11.3305
ltoes 1.22906
385
root -0.536792 18.1147 -22.8653 2.37839 6.50324 -1.91972
lowerback 3.58205 -5.21485 -1.57025
upperback -1.4293 -6.87114 6.39423
thorax -2.50683 -3.3712 7.90676
lowerneck -14.1114 6.00725 7.67128
upperneck 21.6367 9.88647 -13.5204
head 10.3309 3.76711 -4.75043
rclavicle -5.46658e-015 3.49861e-014
rhumerus -40.1498 3.05059 -75.541
rradius 35.8936
rwrist -11.0309
rhand -15.9947 -4.80729
rfingers 7.12502
rthumb 10.2053 -34.5397
lclavicle -5.46658e-015 3.49861e-014
lhumerus -40.5348 13.7701 84.6788
lradius 36.173
lwrist 11.6791
lhand -12.8108 0.19637
lfingers 7.12502
lthumb 13.2756 29.7536
rfemur -12.7492 1.10811 27.5203
rtibia 26.1178
rfoot -10.5741 -19.2443
rtoes 2.37603
lfemur -4.98893 -2.30742 -10.5191
ltibia 54.8912
lfoot 21.481 -11.6887
ltoes 1.2343
386
root -0.545724 18.1146 -22.8303 2.29035 6.53259 -2.06597
lowerback 3.62998 -5.15927 -1.41494
upperback -1.40734 -6.78747 6.41023
thorax -2.539 -3.3306 7.83791
lowerneck -14.0726 5.97864 7.64784
upperneck 21.6633 9.85203 -13.5007
head 10.3259 3.75251 -4.74578
rclavicle -2.43511e-014 -1.27222e-014
rhumerus -40.1244 3.13942 -75.6041
rradius 35.978
rwrist -11.0489
rhand -16.0063 -4.78996
rfingers 7.12502
rthumb 10.1941 -34.523
lclavicle -2.43511e-014 -1.27222e-014
lhumerus -40.7146 13.5082 84.8002
lradius 36.321
lwrist 11.7251
lhand -12.8185 0.159567
lfingers 7.12502
lthumb 13.2682 29.7172
rfemur -12.4296 1.05174 27.7331
rtibia 25.8874
rfoot -10.5725 -19.2424
rtoes 2.34348
lfemur -5.76283 -2.38523 -10.2561
ltibia 56.1274
lfoot 21.4033 -12.0266
ltoes 1.3479
387
root -0.554606 18.1144 -22.7973 2.22019 6.5436 -2.2229
lowerback 3.67858 -5.09243 -1.24824
upperback -1.38003 -6.68802 6.43128
thorax -2.56851 -3.28242 7.76702
lowerneck -14.0843 5.9614 7.64557
upperneck 21.6916 9.83195 -13.5014
head 10.3357 3.74204 -4.74926
rclavicle -1.54058e-014 4.77083e-015
rhumerus -40.0828 3.20665 -75.6545
rradius 36.0815
rwrist -11.0742
rhand -15.9971 -4.72765
rfingers 7.12502
rthumb 10.2029 -34.4602
lclavicle -1.54058e-014 4.77083e-015
lhumerus -40.8744 13.251 84.9298
lradius 36.4814
lwrist 11.7657
lhand -12.8467 0.160977
lfingers 7.12502
lthumb 13.241 29.7204
rfemur -12.1438 1.00253 27.9548
rtibia 25.6661
rfoot -10.5436 -19.2242
rtoes 2.25474
lfemur -6.56745 -2.43271 -9.97936
ltibia 57.3475
lfoot 21.2984 -12.3882
ltoes 1.24424
388
root -0.56274 18.1138 -22.7653 2.15403 6.52863 -2.38997
lowerback 3.67493 -4.80477 -0.957814
upperback -1.34427 -6.29092 6.24492
thorax -2.63691 -3.08566 7.38863
lowerneck -14.1563 5.62303 7.67856
upperneck 21.8358 9.27775 -13.2063
head 10.3145 3.5147 -4.73223
rclavicle 7.80727e-014 -1.43125e-014
rhumerus -40.2951 2.42859 -75.6924
rradius 36.2325
rwrist -11.0145
rhand -15.993 -4.63727
rfingers 7.12502
rthumb 10.2069 -34.3697
lclavicle 7.80727e-014 -1.43125e-014
lhumerus -40.9369 12.1762 85.0835
lradius 36.6147
lwrist 11.8688
lhand -12.8701 0.228182
lfingers 7.12502
lthumb 13.2184 29.7891
rfemur -11.8689 0.950564 28.1824
rtibia 25.4479
rfoot -10.4929 -19.1747
rtoes 2.12368
lfemur -7.37229 -2.45048 -9.69544
ltibia 58.5382
lfoot 21.1713 -12.7323
ltoes 1.12664
389
root -0.571363 18.113 -22.7355 2.10228 6.53186 -2.56354
lowerback 3.70047 -4.57965 -0.683627
upperback -1.32567 -5.97637 6.11816
thorax -2.71472 -2.93007 7.08914
lowerneck -14.2117 5.36929 7.70441
upperneck 21.9669 8.86773 -12.9974
head 10.3098 3.34529 -4.72355
rclavicle 4.86525e-014 1.59028e-014
rhumerus -40.4404 1.87713 -75.7348
rradius 36.3893
rwrist -10.9922
rhand -16.0172 -4.56684
rfingers 7.12502
rthumb 10.1836 -34.3004
lclavicle 4.86525e-014 1.59028e-014
lhumerus -41.0585 11.3401 85.2179
lradius 36.7857
lwrist 11.946
lhand -12.8798 0.313219
lfingers 7.12502
lthumb 13.209 29.8747
rfemur -11.6195 0.883901 28.4181
rtibia 25.231
rfoot -10.4636 -19.1287
rtoes 2.0444
lfemur -8.20626 -2.4635 -9.3962
ltibia 59.6971
lfoot 21.0369 -13.0652
ltoes 0.811429
390
root -0.579471 18.1128 -22.7059 2.04336 6.54225 -2.73074
lowerback 3.73793 -4.34442 -0.4167
upperback -1.26045 -5.65045 5.99637
thorax -2.74655 -2.77088 6.79569
lowerneck -14.4183 5.14571 7.79148
upperneck 22.0719 8.49182 -12.8551
head 10.3368 3.18495 -4.74193
rclavicle -6.11263e-015 -1.74931e-014
rhumerus -40.4818 1.28402 -75.7515
rradius 36.5421
rwrist -10.9848
rhand -16.0789 -4.52286
rfingers 7.12502
rthumb 10.124 -34.2593
lclavicle -6.11263e-015 -1.74931e-014
lhumerus -41.0744 10.5165 85.3787
lradius 36.9459
lwrist 12.0217
lhand -12.8811 0.37582
lfingers 7.12502
lthumb 13.2078 29.9374
rfemur -11.3565 0.790236 28.6436
rtibia 25.0075
rfoot -10.4393 -19.067
rtoes 1.96974
lfemur -9.02649 -2.47753 -9.10734
ltibia 60.8067
lfoot 20.8972 -13.3413
ltoes 0.85682
391
root -0.587867 18.1125 -22.6777 1.9884 6.57485 -2.89187
lowerback 3.8083 -4.36169 -0.227983
upperback -1.23132 -5.66049 6.07015
thorax -2.76552 -2.77845 6.77306
lowerneck -14.4389 5.3158 8.02741
upperneck 21.9936 8.74655 -13.1617
head 10.3722 3.29081 -4.85592
rclavicle -2.78299e-015 3.18055e-015
rhumerus -40.3168 1.59241 -75.8301
rradius 36.6606
rwrist -11.0686
rhand -16.1492 -4.46906
rfingers 7.12502
rthumb 10.0562 -34.2088
lclavicle -2.78299e-015 3.18055e-015
lhumerus -41.2878 10.5974 85.4353
lradius 37.1614
lwrist 12.042
lhand -12.8828 0.426802
lfingers 7.12502
lthumb 13.2061 29.9885
rfemur -11.098 0.679415 28.8623
rtibia 24.7785
rfoot -10.4482 -19.013
rtoes 1.97008
lfemur -9.84862 -2.50169 -8.82254
ltibia 61.868
lfoot 20.7348 -13.5503
ltoes 1.1916
392
root -0.595859 18.1129 -22.6494 1.92398 6.61293 -3.03955
lowerback 3.89809 -4.47171 -0.110115
upperback -1.19127 -5.79646 6.23395
thorax -2.75344 -2.84875 6.89275
lowerneck -14.4842 5.58474 8.15771
upperneck 21.9357 9.18847 -13.5359
head 10.4455 3.46489 -4.94878
rclavicle 4.73604e-014 1.59028e-015
rhumerus -40.0333 2.25438 -75.902
rradius 36.7695
rwrist -11.194
rhand -16.2387 -4.40927
rfingers 7.12502
rthumb 9.9699 -34.1532
lclavicle 4.73604e-014 1.59028e-015
lhumerus -41.5247 11.0576 85.4778
lradius 37.3851
lwrist 12.0431
lhand -12.8898 0.486667
lfingers 7.12502
lthumb 13.1995 30.0488
rfemur -10.818 0.548562 29.0621
rtibia 24.5378
rfoot -10.4844 -18.9491
rtoes 2.011
lfemur -10.6517 -2.53383 -8.56193
ltibia 62.8729
lfoot 20.5658 -13.6812
ltoes 1.34258
393
root -0.603296 18.1135 -22.622 1.87017 6.63993 -3.16559
lowerback 4.00133 -4.67008 -0.0497291
upperback -1.16836 -6.05113 6.47364
thorax -2.73826 -2.97757 7.13376
lowerneck -14.4918 5.97761 8.24687
upperneck 21.8688 9.84509 -14.0028
head 10.5441 3.72574 -5.03574
rclavicle -4.44284e-014 4.77083e-015
rhumerus -39.6762 3.25824 -75.9744
rradius 36.8679
rwrist -11.3348
rhand -16.329 -4.31305
rfingers 7.12502
rthumb 9.88278 -34.0611
lclavicle -4.44284e-014 4.77083e-015
lhumerus -41.8195 11.874 85.4892
lradius 37.6027
lwrist 12.0224
lhand -12.9039 0.511447
lfingers 7.12502
lthumb 13.1858 30.0745
rfemur -10.5462 0.396216 29.2306
rtibia 24.2908
rfoot -10.5292 -18.8515
rtoes 2.0521
lfemur -11.4498 -2.55118 -8.3367
ltibia 63.8255
lfoot 20.2757 -13.7154
ltoes 1.03662
394
root -0.610021 18.1142 -22.5946 1.81611 6.63828 -3.28667
lowerback 4.09296 -4.82247 0.0166646
upperback -1.16476 -6.244 6.67436
thorax -2.74746 -3.07483 7.32819
lowerneck -14.4666 6.25661 8.21267
upperneck 21.8818 10.3404 -14.3102
head 10.6304 3.918 -5.06868
rclavicle 5.77469e-014 -8.11041e-014
rhumerus -39.4216 4.11219 -76.0326
rradius 36.9765
rwrist -11.4424
rhand -16.4194 -4.17976
rfingers 7.12502
rthumb 9.79552 -33.9319
lclavicle 5.77469e-014 -8.11041e-014
lhumerus -42.1408 12.5517 85.4883
lradius 37.7942
lwrist 12.0011
lhand -12.9277 0.518494
lfingers 7.12502
lthumb 13.1629 30.083
rfemur -10.2692 0.244966 29.3863
rtibia 24.0379
rfoot -10.5818 -18.7235
rtoes 2.10407
lfemur -12.2249 -2.54001 -8.12788
ltibia 64.724
lfoot 19.9332 -13.6273
ltoes 0.703006
395
root -0.616563 18.115 -22.5679 1.76578 6.63028 -3.40946
lowerback 4.18239 -4.95695 0.0719498
upperback -1.18823 -6.41223 6.86558
thorax -2.78555 -3.15855 7.52019
lowerneck -14.312 6.45333 8.06523
upperneck 21.8538 10.718 -14.5091
head 10.6476 4.06501 -5.06028
rclavicle -2.03754e-014 3.33958e-014
rhumerus -39.2584 4.92183 -76.0819
rradius 37.114
rwrist -11.5353
rhand -16.5144 -4.05367
rfingers 7.12502
rthumb 9.70384 -33.8101
lclavicle -2.03754e-014 3.33958e-014
lhumerus -42.5144 13.1783 85.4758
lradius 37.979
lwrist 11.9919
lhand -12.951 0.498849
lfingers 7.12502
lthumb 13.1405 30.0648
rfemur -9.99937 0.0902182 29.5397
rtibia 23.7854
rfoot -10.6195 -18.5777
rtoes 2.11973
lfemur -12.9911 -2.5032 -7.9199
ltibia 65.5743
lfoot 19.5025 -13.4878
ltoes -0.17495
